<svg xmlns="http://www.w3.org/2000/svg" width="155px" height="70px">
    <defs>
        <linearGradient id="PSgrad_0" x1="0%" x2="0%" y1="100%" y2="0%">
            <stop offset="0%" stop-color="rgb(166,121,0)" stop-opacity="0.85" />
            <stop offset="100%" stop-color="rgb(255,255,255)" stop-opacity="0" />
        </linearGradient>
    </defs>
    <path fill-rule="evenodd"  fill="rgb(223, 198, 129)"
          d="M99.716,58.272 C99.620,59.216 99.356,60.068 98.924,60.828 C98.492,61.588 97.944,62.240 97.280,62.784 C96.616,63.328 95.868,63.744 95.036,64.032 C94.204,64.320 93.332,64.464 92.420,64.464 C92.404,64.864 92.424,65.248 92.480,65.616 C92.536,65.984 92.648,66.312 92.816,66.600 C92.984,66.888 93.216,67.116 93.512,67.284 C93.808,67.452 94.188,67.536 94.652,67.536 C95.292,67.536 95.872,67.356 96.392,66.996 C96.912,66.636 97.364,66.200 97.748,65.688 C97.796,65.624 97.844,65.592 97.892,65.592 C98.004,65.592 98.116,65.664 98.228,65.808 C98.340,65.952 98.388,66.080 98.372,66.192 C98.340,66.352 98.252,66.524 98.108,66.708 C97.964,66.892 97.836,67.048 97.724,67.176 C97.148,67.848 96.452,68.376 95.636,68.760 C94.820,69.144 93.988,69.336 93.140,69.336 C92.340,69.336 91.708,69.152 91.244,68.784 C90.780,68.416 90.436,67.948 90.212,67.380 C89.988,66.812 89.864,66.184 89.840,65.496 C89.816,64.808 89.836,64.144 89.900,63.504 C89.996,62.640 90.196,61.692 90.500,60.660 C90.804,59.628 91.232,58.660 91.784,57.756 C92.336,56.852 93.012,56.096 93.812,55.488 C94.612,54.880 95.548,54.576 96.620,54.576 C97.740,54.576 98.568,54.920 99.104,55.608 C99.640,56.296 99.844,57.184 99.716,58.272 ZM97.628,57.732 C97.596,57.372 97.512,57.044 97.376,56.748 C97.240,56.452 97.048,56.204 96.800,56.004 C96.552,55.804 96.236,55.704 95.852,55.704 C95.436,55.704 95.064,55.828 94.736,56.076 C94.408,56.324 94.124,56.648 93.884,57.048 C93.644,57.448 93.440,57.896 93.272,58.392 C93.104,58.888 92.964,59.384 92.852,59.880 C92.740,60.376 92.652,60.848 92.588,61.296 C92.524,61.744 92.476,62.112 92.444,62.400 C92.412,62.640 92.424,62.856 92.480,63.048 C92.536,63.240 92.716,63.336 93.020,63.336 C93.644,63.336 94.224,63.208 94.760,62.952 C95.296,62.696 95.768,62.356 96.176,61.932 C96.584,61.508 96.912,61.020 97.160,60.468 C97.408,59.916 97.564,59.344 97.628,58.752 C97.660,58.432 97.660,58.092 97.628,57.732 ZM87.620,67.632 L87.620,67.656 L87.596,67.656 L87.596,67.632 L87.620,67.632 ZM89.444,55.547 C89.396,56.036 89.132,56.280 88.652,56.280 L86.084,56.280 C85.972,57.336 85.852,58.392 85.724,59.448 C85.596,60.504 85.468,61.560 85.340,62.616 C85.308,62.872 85.276,63.220 85.244,63.660 C85.212,64.100 85.184,64.556 85.160,65.028 C85.136,65.500 85.124,65.952 85.124,66.384 C85.124,66.800 85.148,67.112 85.196,67.320 C85.276,67.576 85.408,67.736 85.592,67.800 C85.776,67.864 85.988,67.896 86.228,67.896 C86.452,67.896 86.684,67.876 86.924,67.836 C87.164,67.796 87.396,67.744 87.620,67.680 L87.740,68.520 C87.148,68.680 86.544,68.832 85.928,68.976 C85.312,69.120 84.708,69.192 84.116,69.192 C83.700,69.192 83.384,69.108 83.168,68.940 C82.952,68.772 82.800,68.556 82.712,68.292 C82.624,68.028 82.584,67.732 82.592,67.404 C82.600,67.076 82.620,66.752 82.652,66.432 C82.828,64.736 83.044,63.044 83.300,61.356 C83.556,59.668 83.820,57.976 84.092,56.280 L82.868,56.280 L83.012,54.912 L83.276,54.912 C83.628,54.912 83.896,54.821 84.080,54.638 C84.264,54.455 84.404,54.225 84.500,53.946 C84.596,53.668 84.668,53.370 84.716,53.052 C84.764,52.734 84.840,52.436 84.944,52.158 C85.048,51.880 85.200,51.649 85.400,51.466 C85.600,51.283 85.900,51.192 86.300,51.192 C86.364,51.192 86.412,51.268 86.444,51.418 C86.476,51.570 86.492,51.764 86.492,52.003 C86.492,52.225 86.480,52.480 86.456,52.766 C86.432,53.052 86.412,53.330 86.396,53.600 C86.364,53.902 86.332,54.172 86.300,54.411 C86.268,54.649 86.244,54.808 86.228,54.888 L89.516,54.888 L89.444,55.547 ZM77.276,69.240 C76.860,69.240 76.544,69.156 76.328,68.988 C76.112,68.820 75.960,68.604 75.872,68.340 C75.784,68.076 75.740,67.784 75.740,67.464 C75.740,67.128 75.756,66.800 75.788,66.480 C75.980,64.688 76.240,62.904 76.568,61.128 C76.896,59.352 77.244,57.568 77.612,55.776 L76.028,55.776 L76.124,54.912 L78.932,54.912 C78.948,55.840 78.932,56.764 78.884,57.684 C78.836,58.604 78.772,59.528 78.692,60.456 C78.612,61.176 78.556,61.896 78.524,62.616 C78.492,63.336 78.436,64.056 78.356,64.776 L78.332,64.872 C78.316,65.096 78.296,65.388 78.272,65.748 C78.248,66.108 78.260,66.456 78.308,66.792 C78.356,67.128 78.448,67.420 78.584,67.668 C78.720,67.916 78.940,68.040 79.244,68.040 C79.564,68.040 79.908,68.000 80.276,67.920 L80.324,68.760 C79.812,68.840 79.304,68.940 78.800,69.060 C78.296,69.180 77.788,69.240 77.276,69.240 ZM79.712,51.150 C79.656,51.390 79.576,51.618 79.472,51.834 C79.368,52.050 79.232,52.234 79.064,52.386 C78.896,52.538 78.684,52.614 78.428,52.614 C78.172,52.614 77.976,52.546 77.840,52.410 C77.704,52.274 77.604,52.102 77.540,51.894 C77.476,51.686 77.444,51.470 77.444,51.246 C77.444,51.006 77.452,50.790 77.468,50.598 C77.484,50.390 77.524,50.162 77.588,49.914 C77.652,49.666 77.740,49.434 77.852,49.218 C77.964,49.002 78.108,48.822 78.284,48.678 C78.460,48.534 78.684,48.462 78.956,48.462 C79.196,48.462 79.376,48.534 79.496,48.678 C79.616,48.822 79.704,49.002 79.760,49.218 C79.816,49.434 79.844,49.662 79.844,49.902 C79.844,50.126 79.836,50.326 79.820,50.502 C79.804,50.694 79.768,50.910 79.712,51.150 ZM69.932,69.192 C69.516,69.192 69.200,69.092 68.984,68.892 C68.768,68.692 68.620,68.444 68.540,68.148 C68.460,67.852 68.424,67.524 68.432,67.164 C68.440,66.804 68.460,66.456 68.492,66.120 L68.564,65.544 C68.756,63.656 68.976,61.788 69.224,59.940 C69.472,58.092 69.740,56.791 70.028,54.903 C70.220,53.719 70.396,54.358 70.556,53.190 C70.716,52.022 70.916,50.846 71.156,49.662 L69.020,49.662 L69.116,48.798 L72.476,48.798 C72.444,50.526 72.352,51.339 72.200,53.051 C72.048,54.763 71.884,55.008 71.708,56.736 C71.564,58.256 71.440,59.760 71.336,61.248 C71.232,62.736 71.124,64.240 71.012,65.760 C70.996,65.952 70.980,66.180 70.964,66.444 C70.948,66.708 70.964,66.952 71.012,67.176 C71.060,67.400 71.152,67.592 71.288,67.752 C71.424,67.912 71.628,67.992 71.900,67.992 C72.076,67.992 72.252,67.976 72.428,67.944 C72.604,67.912 72.780,67.880 72.956,67.848 L72.980,68.688 C72.468,68.768 71.960,68.872 71.456,69.000 C70.952,69.128 70.444,69.192 69.932,69.192 ZM65.444,60.828 C65.012,61.588 64.464,62.240 63.800,62.784 C63.136,63.328 62.388,63.744 61.556,64.032 C60.724,64.320 59.852,64.464 58.940,64.464 C58.924,64.864 58.944,65.248 59.000,65.616 C59.056,65.984 59.168,66.312 59.336,66.600 C59.504,66.888 59.736,67.116 60.032,67.284 C60.328,67.452 60.708,67.536 61.172,67.536 C61.812,67.536 62.392,67.356 62.912,66.996 C63.432,66.636 63.884,66.200 64.268,65.688 C64.316,65.624 64.364,65.592 64.412,65.592 C64.524,65.592 64.636,65.664 64.748,65.808 C64.860,65.952 64.908,66.080 64.892,66.192 C64.860,66.352 64.772,66.524 64.628,66.708 C64.484,66.892 64.356,67.048 64.244,67.176 C63.668,67.848 62.972,68.376 62.156,68.760 C61.340,69.144 60.508,69.336 59.660,69.336 C58.860,69.336 58.228,69.152 57.764,68.784 C57.300,68.416 56.956,67.948 56.732,67.380 C56.508,66.812 56.384,66.184 56.360,65.496 C56.336,64.808 56.356,64.144 56.420,63.504 C56.516,62.640 56.716,61.692 57.020,60.660 C57.324,59.628 57.752,58.660 58.304,57.756 C58.856,56.852 59.532,56.096 60.332,55.488 C61.132,54.880 62.068,54.576 63.140,54.576 C64.260,54.576 65.088,54.920 65.624,55.608 C66.160,56.296 66.364,57.184 66.236,58.272 C66.140,59.216 65.876,60.068 65.444,60.828 ZM64.148,57.732 C64.116,57.372 64.032,57.044 63.896,56.748 C63.760,56.452 63.568,56.204 63.320,56.004 C63.072,55.804 62.756,55.704 62.372,55.704 C61.956,55.704 61.584,55.828 61.256,56.076 C60.928,56.324 60.644,56.648 60.404,57.048 C60.164,57.448 59.960,57.896 59.792,58.392 C59.624,58.888 59.484,59.384 59.372,59.880 C59.260,60.376 59.172,60.848 59.108,61.296 C59.044,61.744 58.996,62.112 58.964,62.400 C58.932,62.640 58.944,62.856 59.000,63.048 C59.056,63.240 59.236,63.336 59.540,63.336 C60.164,63.336 60.744,63.208 61.280,62.952 C61.816,62.696 62.288,62.356 62.696,61.932 C63.104,61.508 63.432,61.020 63.680,60.468 C63.928,59.916 64.084,59.344 64.148,58.752 C64.180,58.432 64.180,58.092 64.148,57.732 Z"/>
    <path fill="url(#PSgrad_0)"
          d="M99.716,58.272 C99.620,59.216 99.356,60.068 98.924,60.828 C98.492,61.588 97.944,62.240 97.280,62.784 C96.616,63.328 95.868,63.744 95.036,64.032 C94.204,64.320 93.332,64.464 92.420,64.464 C92.404,64.864 92.424,65.248 92.480,65.616 C92.536,65.984 92.648,66.312 92.816,66.600 C92.984,66.888 93.216,67.116 93.512,67.284 C93.808,67.452 94.188,67.536 94.652,67.536 C95.292,67.536 95.872,67.356 96.392,66.996 C96.912,66.636 97.364,66.200 97.748,65.688 C97.796,65.624 97.844,65.592 97.892,65.592 C98.004,65.592 98.116,65.664 98.228,65.808 C98.340,65.952 98.388,66.080 98.372,66.192 C98.340,66.352 98.252,66.524 98.108,66.708 C97.964,66.892 97.836,67.048 97.724,67.176 C97.148,67.848 96.452,68.376 95.636,68.760 C94.820,69.144 93.988,69.336 93.140,69.336 C92.340,69.336 91.708,69.152 91.244,68.784 C90.780,68.416 90.436,67.948 90.212,67.380 C89.988,66.812 89.864,66.184 89.840,65.496 C89.816,64.808 89.836,64.144 89.900,63.504 C89.996,62.640 90.196,61.692 90.500,60.660 C90.804,59.628 91.232,58.660 91.784,57.756 C92.336,56.852 93.012,56.096 93.812,55.488 C94.612,54.880 95.548,54.576 96.620,54.576 C97.740,54.576 98.568,54.920 99.104,55.608 C99.640,56.296 99.844,57.184 99.716,58.272 ZM97.628,57.732 C97.596,57.372 97.512,57.044 97.376,56.748 C97.240,56.452 97.048,56.204 96.800,56.004 C96.552,55.804 96.236,55.704 95.852,55.704 C95.436,55.704 95.064,55.828 94.736,56.076 C94.408,56.324 94.124,56.648 93.884,57.048 C93.644,57.448 93.440,57.896 93.272,58.392 C93.104,58.888 92.964,59.384 92.852,59.880 C92.740,60.376 92.652,60.848 92.588,61.296 C92.524,61.744 92.476,62.112 92.444,62.400 C92.412,62.640 92.424,62.856 92.480,63.048 C92.536,63.240 92.716,63.336 93.020,63.336 C93.644,63.336 94.224,63.208 94.760,62.952 C95.296,62.696 95.768,62.356 96.176,61.932 C96.584,61.508 96.912,61.020 97.160,60.468 C97.408,59.916 97.564,59.344 97.628,58.752 C97.660,58.432 97.660,58.092 97.628,57.732 ZM87.620,67.632 L87.620,67.656 L87.596,67.656 L87.596,67.632 L87.620,67.632 ZM89.444,55.547 C89.396,56.036 89.132,56.280 88.652,56.280 L86.084,56.280 C85.972,57.336 85.852,58.392 85.724,59.448 C85.596,60.504 85.468,61.560 85.340,62.616 C85.308,62.872 85.276,63.220 85.244,63.660 C85.212,64.100 85.184,64.556 85.160,65.028 C85.136,65.500 85.124,65.952 85.124,66.384 C85.124,66.800 85.148,67.112 85.196,67.320 C85.276,67.576 85.408,67.736 85.592,67.800 C85.776,67.864 85.988,67.896 86.228,67.896 C86.452,67.896 86.684,67.876 86.924,67.836 C87.164,67.796 87.396,67.744 87.620,67.680 L87.740,68.520 C87.148,68.680 86.544,68.832 85.928,68.976 C85.312,69.120 84.708,69.192 84.116,69.192 C83.700,69.192 83.384,69.108 83.168,68.940 C82.952,68.772 82.800,68.556 82.712,68.292 C82.624,68.028 82.584,67.732 82.592,67.404 C82.600,67.076 82.620,66.752 82.652,66.432 C82.828,64.736 83.044,63.044 83.300,61.356 C83.556,59.668 83.820,57.976 84.092,56.280 L82.868,56.280 L83.012,54.912 L83.276,54.912 C83.628,54.912 83.896,54.821 84.080,54.638 C84.264,54.455 84.404,54.225 84.500,53.946 C84.596,53.668 84.668,53.370 84.716,53.052 C84.764,52.734 84.840,52.436 84.944,52.158 C85.048,51.880 85.200,51.649 85.400,51.466 C85.600,51.283 85.900,51.192 86.300,51.192 C86.364,51.192 86.412,51.268 86.444,51.418 C86.476,51.570 86.492,51.764 86.492,52.003 C86.492,52.225 86.480,52.480 86.456,52.766 C86.432,53.052 86.412,53.330 86.396,53.600 C86.364,53.902 86.332,54.172 86.300,54.411 C86.268,54.649 86.244,54.808 86.228,54.888 L89.516,54.888 L89.444,55.547 ZM77.276,69.240 C76.860,69.240 76.544,69.156 76.328,68.988 C76.112,68.820 75.960,68.604 75.872,68.340 C75.784,68.076 75.740,67.784 75.740,67.464 C75.740,67.128 75.756,66.800 75.788,66.480 C75.980,64.688 76.240,62.904 76.568,61.128 C76.896,59.352 77.244,57.568 77.612,55.776 L76.028,55.776 L76.124,54.912 L78.932,54.912 C78.948,55.840 78.932,56.764 78.884,57.684 C78.836,58.604 78.772,59.528 78.692,60.456 C78.612,61.176 78.556,61.896 78.524,62.616 C78.492,63.336 78.436,64.056 78.356,64.776 L78.332,64.872 C78.316,65.096 78.296,65.388 78.272,65.748 C78.248,66.108 78.260,66.456 78.308,66.792 C78.356,67.128 78.448,67.420 78.584,67.668 C78.720,67.916 78.940,68.040 79.244,68.040 C79.564,68.040 79.908,68.000 80.276,67.920 L80.324,68.760 C79.812,68.840 79.304,68.940 78.800,69.060 C78.296,69.180 77.788,69.240 77.276,69.240 ZM79.712,51.150 C79.656,51.390 79.576,51.618 79.472,51.834 C79.368,52.050 79.232,52.234 79.064,52.386 C78.896,52.538 78.684,52.614 78.428,52.614 C78.172,52.614 77.976,52.546 77.840,52.410 C77.704,52.274 77.604,52.102 77.540,51.894 C77.476,51.686 77.444,51.470 77.444,51.246 C77.444,51.006 77.452,50.790 77.468,50.598 C77.484,50.390 77.524,50.162 77.588,49.914 C77.652,49.666 77.740,49.434 77.852,49.218 C77.964,49.002 78.108,48.822 78.284,48.678 C78.460,48.534 78.684,48.462 78.956,48.462 C79.196,48.462 79.376,48.534 79.496,48.678 C79.616,48.822 79.704,49.002 79.760,49.218 C79.816,49.434 79.844,49.662 79.844,49.902 C79.844,50.126 79.836,50.326 79.820,50.502 C79.804,50.694 79.768,50.910 79.712,51.150 ZM69.932,69.192 C69.516,69.192 69.200,69.092 68.984,68.892 C68.768,68.692 68.620,68.444 68.540,68.148 C68.460,67.852 68.424,67.524 68.432,67.164 C68.440,66.804 68.460,66.456 68.492,66.120 L68.564,65.544 C68.756,63.656 68.976,61.788 69.224,59.940 C69.472,58.092 69.740,56.791 70.028,54.903 C70.220,53.719 70.396,54.358 70.556,53.190 C70.716,52.022 70.916,50.846 71.156,49.662 L69.020,49.662 L69.116,48.798 L72.476,48.798 C72.444,50.526 72.352,51.339 72.200,53.051 C72.048,54.763 71.884,55.008 71.708,56.736 C71.564,58.256 71.440,59.760 71.336,61.248 C71.232,62.736 71.124,64.240 71.012,65.760 C70.996,65.952 70.980,66.180 70.964,66.444 C70.948,66.708 70.964,66.952 71.012,67.176 C71.060,67.400 71.152,67.592 71.288,67.752 C71.424,67.912 71.628,67.992 71.900,67.992 C72.076,67.992 72.252,67.976 72.428,67.944 C72.604,67.912 72.780,67.880 72.956,67.848 L72.980,68.688 C72.468,68.768 71.960,68.872 71.456,69.000 C70.952,69.128 70.444,69.192 69.932,69.192 ZM65.444,60.828 C65.012,61.588 64.464,62.240 63.800,62.784 C63.136,63.328 62.388,63.744 61.556,64.032 C60.724,64.320 59.852,64.464 58.940,64.464 C58.924,64.864 58.944,65.248 59.000,65.616 C59.056,65.984 59.168,66.312 59.336,66.600 C59.504,66.888 59.736,67.116 60.032,67.284 C60.328,67.452 60.708,67.536 61.172,67.536 C61.812,67.536 62.392,67.356 62.912,66.996 C63.432,66.636 63.884,66.200 64.268,65.688 C64.316,65.624 64.364,65.592 64.412,65.592 C64.524,65.592 64.636,65.664 64.748,65.808 C64.860,65.952 64.908,66.080 64.892,66.192 C64.860,66.352 64.772,66.524 64.628,66.708 C64.484,66.892 64.356,67.048 64.244,67.176 C63.668,67.848 62.972,68.376 62.156,68.760 C61.340,69.144 60.508,69.336 59.660,69.336 C58.860,69.336 58.228,69.152 57.764,68.784 C57.300,68.416 56.956,67.948 56.732,67.380 C56.508,66.812 56.384,66.184 56.360,65.496 C56.336,64.808 56.356,64.144 56.420,63.504 C56.516,62.640 56.716,61.692 57.020,60.660 C57.324,59.628 57.752,58.660 58.304,57.756 C58.856,56.852 59.532,56.096 60.332,55.488 C61.132,54.880 62.068,54.576 63.140,54.576 C64.260,54.576 65.088,54.920 65.624,55.608 C66.160,56.296 66.364,57.184 66.236,58.272 C66.140,59.216 65.876,60.068 65.444,60.828 ZM64.148,57.732 C64.116,57.372 64.032,57.044 63.896,56.748 C63.760,56.452 63.568,56.204 63.320,56.004 C63.072,55.804 62.756,55.704 62.372,55.704 C61.956,55.704 61.584,55.828 61.256,56.076 C60.928,56.324 60.644,56.648 60.404,57.048 C60.164,57.448 59.960,57.896 59.792,58.392 C59.624,58.888 59.484,59.384 59.372,59.880 C59.260,60.376 59.172,60.848 59.108,61.296 C59.044,61.744 58.996,62.112 58.964,62.400 C58.932,62.640 58.944,62.856 59.000,63.048 C59.056,63.240 59.236,63.336 59.540,63.336 C60.164,63.336 60.744,63.208 61.280,62.952 C61.816,62.696 62.288,62.356 62.696,61.932 C63.104,61.508 63.432,61.020 63.680,60.468 C63.928,59.916 64.084,59.344 64.148,58.752 C64.180,58.432 64.180,58.092 64.148,57.732 Z"/>
    <path fill-rule="evenodd"  fill="rgb(193, 166, 90)"
          d="M47.637,65.348 C47.692,65.246 45.500,60.779 39.546,59.647 C39.210,60.176 38.859,60.699 38.487,61.215 C36.854,63.490 34.249,65.160 31.157,65.892 C28.066,66.634 24.838,66.366 22.271,65.277 C21.636,65.007 21.008,64.731 20.384,64.448 C21.048,64.094 21.692,63.727 22.311,63.349 C24.825,61.822 27.445,60.660 30.148,59.912 C32.105,59.374 33.983,59.097 35.794,59.114 C35.784,59.085 35.774,59.055 35.764,59.025 C35.163,58.905 34.705,58.545 34.132,58.307 C31.707,57.294 29.591,55.385 28.324,52.914 C27.042,50.441 26.740,47.680 27.280,45.061 C27.410,44.412 27.552,43.766 27.700,43.121 C28.122,43.472 28.551,43.813 28.987,44.148 C30.744,45.501 31.879,47.363 33.475,49.415 C35.060,51.472 35.496,54.479 35.739,57.091 C35.784,57.615 35.609,58.181 35.754,58.689 C44.954,58.419 48.543,64.141 48.564,64.528 C48.257,64.802 47.947,65.075 47.637,65.348 ZM25.290,54.891 C24.759,54.560 24.242,54.224 23.732,53.880 C21.658,52.493 20.214,50.326 19.688,47.735 C19.155,45.143 19.560,42.383 20.601,39.848 C20.860,39.218 21.121,38.592 21.385,37.967 C21.685,38.387 21.992,38.802 22.310,39.209 C23.592,40.857 24.543,42.989 25.157,45.452 C25.764,47.914 25.976,50.486 25.574,53.009 C25.475,53.635 25.380,54.260 25.290,54.891 ZM16.031,46.448 C15.683,47.005 15.335,47.565 14.985,48.127 C14.718,47.643 14.459,47.155 14.216,46.661 C13.220,44.672 13.066,42.140 13.701,39.377 C14.334,36.617 15.659,33.900 17.342,31.682 C17.759,31.134 18.175,30.592 18.593,30.052 C18.672,30.606 18.759,31.155 18.856,31.699 C19.245,33.893 19.217,36.398 18.761,39.031 C18.298,41.663 17.435,44.191 16.031,46.448 ZM14.405,20.263 C13.127,22.501 11.640,24.451 9.966,26.028 C9.551,26.418 9.136,26.814 8.723,27.220 C8.759,26.657 8.804,26.089 8.853,25.516 C9.048,23.208 9.836,20.598 11.172,18.162 C12.501,15.727 14.278,13.734 16.199,12.535 C16.673,12.237 17.150,11.948 17.628,11.670 C17.477,12.243 17.333,12.816 17.195,13.388 C16.640,15.696 15.677,18.026 14.405,20.263 ZM8.420,19.172 C8.109,19.694 7.799,20.227 7.492,20.759 C7.308,20.348 7.124,19.932 6.942,19.510 C6.207,17.815 6.006,15.532 6.312,13.019 C6.621,10.509 7.391,8.048 8.717,6.092 C9.046,5.607 9.379,5.128 9.716,4.659 C9.959,5.127 10.185,5.592 10.401,6.053 C11.275,7.919 11.401,10.082 10.991,12.418 C10.574,14.754 9.676,17.052 8.420,19.172 ZM7.717,29.923 C7.698,30.455 7.684,30.980 7.679,31.504 C7.259,31.421 6.843,31.332 6.432,31.238 C4.761,30.861 3.427,29.734 2.639,27.954 C1.851,26.175 1.654,23.913 1.949,21.550 C2.023,20.964 2.095,20.382 2.167,19.796 C2.529,19.995 2.891,20.184 3.251,20.368 C4.708,21.117 5.851,22.404 6.635,24.110 C7.419,25.820 7.790,27.793 7.717,29.923 ZM9.038,41.378 C9.158,41.890 9.289,42.400 9.429,42.906 C8.866,42.954 8.304,42.995 7.738,43.027 C5.460,43.161 3.361,42.476 1.964,41.086 C0.555,39.694 -0.016,37.734 0.135,35.439 C0.153,35.155 0.172,34.871 0.192,34.584 C0.212,34.298 0.233,34.011 0.256,33.722 C0.695,33.780 1.139,33.830 1.587,33.875 C3.396,34.059 4.964,34.869 6.283,36.209 C7.598,37.553 8.550,39.311 9.038,41.378 ZM10.978,29.071 C12.046,26.232 13.638,23.617 15.490,21.719 C15.948,21.250 16.408,20.789 16.871,20.334 C16.834,20.953 16.804,21.564 16.782,22.174 C16.691,24.635 16.161,27.263 15.219,29.907 C14.274,32.549 12.983,34.971 11.299,37.043 C10.882,37.556 10.464,38.073 10.042,38.597 C9.946,38.045 9.858,37.490 9.783,36.929 C9.465,34.671 9.907,31.915 10.978,29.071 ZM9.333,46.958 C11.346,47.745 13.049,49.010 14.368,50.722 C14.691,51.148 15.029,51.564 15.381,51.981 C14.758,52.189 14.124,52.386 13.482,52.572 C10.894,53.333 8.080,53.214 5.802,52.300 C3.507,51.391 2.018,49.830 1.485,47.906 C1.351,47.428 1.227,46.948 1.114,46.467 C1.692,46.404 2.269,46.333 2.844,46.256 C5.166,45.940 7.313,46.174 9.333,46.958 ZM18.393,55.159 C21.083,55.275 23.507,55.851 25.666,56.957 C26.197,57.233 26.741,57.499 27.291,57.760 C26.729,58.160 26.145,58.549 25.545,58.928 C23.131,60.464 19.970,61.203 16.836,60.959 C13.699,60.726 10.987,59.554 9.299,57.888 C8.873,57.475 8.469,57.059 8.073,56.644 C8.789,56.492 9.493,56.322 10.182,56.138 C12.973,55.393 15.701,55.043 18.393,55.159 Z"/>
    <path fill="url(#PSgrad_0)"
          d="M47.637,65.348 C47.692,65.246 45.500,60.779 39.546,59.647 C39.210,60.176 38.859,60.699 38.487,61.215 C36.854,63.490 34.249,65.160 31.157,65.892 C28.066,66.634 24.838,66.366 22.271,65.277 C21.636,65.007 21.008,64.731 20.384,64.448 C21.048,64.094 21.692,63.727 22.311,63.349 C24.825,61.822 27.445,60.660 30.148,59.912 C32.105,59.374 33.983,59.097 35.794,59.114 C35.784,59.085 35.774,59.055 35.764,59.025 C35.163,58.905 34.705,58.545 34.132,58.307 C31.707,57.294 29.591,55.385 28.324,52.914 C27.042,50.441 26.740,47.680 27.280,45.061 C27.410,44.412 27.552,43.766 27.700,43.121 C28.122,43.472 28.551,43.813 28.987,44.148 C30.744,45.501 31.879,47.363 33.475,49.415 C35.060,51.472 35.496,54.479 35.739,57.091 C35.784,57.615 35.609,58.181 35.754,58.689 C44.954,58.419 48.543,64.141 48.564,64.528 C48.257,64.802 47.947,65.075 47.637,65.348 ZM25.290,54.891 C24.759,54.560 24.242,54.224 23.732,53.880 C21.658,52.493 20.214,50.326 19.688,47.735 C19.155,45.143 19.560,42.383 20.601,39.848 C20.860,39.218 21.121,38.592 21.385,37.967 C21.685,38.387 21.992,38.802 22.310,39.209 C23.592,40.857 24.543,42.989 25.157,45.452 C25.764,47.914 25.976,50.486 25.574,53.009 C25.475,53.635 25.380,54.260 25.290,54.891 ZM16.031,46.448 C15.683,47.005 15.335,47.565 14.985,48.127 C14.718,47.643 14.459,47.155 14.216,46.661 C13.220,44.672 13.066,42.140 13.701,39.377 C14.334,36.617 15.659,33.900 17.342,31.682 C17.759,31.134 18.175,30.592 18.593,30.052 C18.672,30.606 18.759,31.155 18.856,31.699 C19.245,33.893 19.217,36.398 18.761,39.031 C18.298,41.663 17.435,44.191 16.031,46.448 ZM14.405,20.263 C13.127,22.501 11.640,24.451 9.966,26.028 C9.551,26.418 9.136,26.814 8.723,27.220 C8.759,26.657 8.804,26.089 8.853,25.516 C9.048,23.208 9.836,20.598 11.172,18.162 C12.501,15.727 14.278,13.734 16.199,12.535 C16.673,12.237 17.150,11.948 17.628,11.670 C17.477,12.243 17.333,12.816 17.195,13.388 C16.640,15.696 15.677,18.026 14.405,20.263 ZM8.420,19.172 C8.109,19.694 7.799,20.227 7.492,20.759 C7.308,20.348 7.124,19.932 6.942,19.510 C6.207,17.815 6.006,15.532 6.312,13.019 C6.621,10.509 7.391,8.048 8.717,6.092 C9.046,5.607 9.379,5.128 9.716,4.659 C9.959,5.127 10.185,5.592 10.401,6.053 C11.275,7.919 11.401,10.082 10.991,12.418 C10.574,14.754 9.676,17.052 8.420,19.172 ZM7.717,29.923 C7.698,30.455 7.684,30.980 7.679,31.504 C7.259,31.421 6.843,31.332 6.432,31.238 C4.761,30.861 3.427,29.734 2.639,27.954 C1.851,26.175 1.654,23.913 1.949,21.550 C2.023,20.964 2.095,20.382 2.167,19.796 C2.529,19.995 2.891,20.184 3.251,20.368 C4.708,21.117 5.851,22.404 6.635,24.110 C7.419,25.820 7.790,27.793 7.717,29.923 ZM9.038,41.378 C9.158,41.890 9.289,42.400 9.429,42.906 C8.866,42.954 8.304,42.995 7.738,43.027 C5.460,43.161 3.361,42.476 1.964,41.086 C0.555,39.694 -0.016,37.734 0.135,35.439 C0.153,35.155 0.172,34.871 0.192,34.584 C0.212,34.298 0.233,34.011 0.256,33.722 C0.695,33.780 1.139,33.830 1.587,33.875 C3.396,34.059 4.964,34.869 6.283,36.209 C7.598,37.553 8.550,39.311 9.038,41.378 ZM10.978,29.071 C12.046,26.232 13.638,23.617 15.490,21.719 C15.948,21.250 16.408,20.789 16.871,20.334 C16.834,20.953 16.804,21.564 16.782,22.174 C16.691,24.635 16.161,27.263 15.219,29.907 C14.274,32.549 12.983,34.971 11.299,37.043 C10.882,37.556 10.464,38.073 10.042,38.597 C9.946,38.045 9.858,37.490 9.783,36.929 C9.465,34.671 9.907,31.915 10.978,29.071 ZM9.333,46.958 C11.346,47.745 13.049,49.010 14.368,50.722 C14.691,51.148 15.029,51.564 15.381,51.981 C14.758,52.189 14.124,52.386 13.482,52.572 C10.894,53.333 8.080,53.214 5.802,52.300 C3.507,51.391 2.018,49.830 1.485,47.906 C1.351,47.428 1.227,46.948 1.114,46.467 C1.692,46.404 2.269,46.333 2.844,46.256 C5.166,45.940 7.313,46.174 9.333,46.958 ZM18.393,55.159 C21.083,55.275 23.507,55.851 25.666,56.957 C26.197,57.233 26.741,57.499 27.291,57.760 C26.729,58.160 26.145,58.549 25.545,58.928 C23.131,60.464 19.970,61.203 16.836,60.959 C13.699,60.726 10.987,59.554 9.299,57.888 C8.873,57.475 8.469,57.059 8.073,56.644 C8.789,56.492 9.493,56.322 10.182,56.138 C12.973,55.393 15.701,55.043 18.393,55.159 Z"/>
    <path fill-rule="evenodd"  fill="rgb(193, 166, 90)"
          d="M153.036,41.086 C151.639,42.476 149.540,43.161 147.262,43.027 C146.696,42.995 146.134,42.954 145.571,42.906 C145.711,42.400 145.842,41.890 145.962,41.378 C146.450,39.311 147.402,37.553 148.717,36.209 C150.036,34.869 151.604,34.059 153.413,33.875 C153.861,33.830 154.305,33.780 154.744,33.722 C154.766,34.011 154.788,34.298 154.808,34.584 C154.828,34.871 154.847,35.155 154.865,35.439 C155.016,37.734 154.445,39.694 153.036,41.086 ZM148.568,31.238 C148.157,31.332 147.740,31.421 147.321,31.504 C147.316,30.980 147.302,30.455 147.283,29.923 C147.210,27.793 147.581,25.820 148.365,24.110 C149.149,22.404 150.292,21.117 151.749,20.368 C152.109,20.184 152.471,19.995 152.833,19.796 C152.905,20.382 152.977,20.964 153.051,21.550 C153.346,23.913 153.149,26.175 152.361,27.954 C151.573,29.734 150.239,30.861 148.568,31.238 ZM147.508,20.759 C147.200,20.227 146.891,19.694 146.579,19.172 C145.324,17.052 144.425,14.754 144.009,12.418 C143.599,10.082 143.725,7.919 144.599,6.053 C144.815,5.592 145.041,5.127 145.284,4.659 C145.621,5.128 145.954,5.607 146.283,6.092 C147.609,8.048 148.379,10.509 148.688,13.019 C148.994,15.532 148.793,17.815 148.058,19.510 C147.876,19.932 147.692,20.348 147.508,20.759 ZM146.147,25.516 C146.196,26.089 146.241,26.657 146.277,27.220 C145.864,26.814 145.449,26.418 145.034,26.028 C143.360,24.451 141.873,22.501 140.595,20.263 C139.323,18.026 138.360,15.696 137.805,13.388 C137.667,12.816 137.523,12.243 137.372,11.670 C137.850,11.948 138.327,12.237 138.801,12.535 C140.722,13.734 142.498,15.727 143.828,18.162 C145.164,20.598 145.952,23.208 146.147,25.516 ZM141.299,39.377 C141.934,42.140 141.780,44.672 140.784,46.661 C140.541,47.155 140.281,47.643 140.015,48.127 C139.665,47.565 139.317,47.005 138.969,46.448 C137.565,44.191 136.701,41.663 136.239,39.031 C135.783,36.398 135.755,33.893 136.144,31.699 C136.241,31.155 136.328,30.606 136.407,30.052 C136.825,30.592 137.241,31.134 137.658,31.682 C139.340,33.900 140.666,36.617 141.299,39.377 ZM131.268,53.880 C130.758,54.224 130.241,54.560 129.710,54.891 C129.619,54.260 129.525,53.635 129.426,53.009 C129.024,50.486 129.236,47.914 129.843,45.452 C130.457,42.989 131.407,40.857 132.690,39.209 C133.008,38.802 133.315,38.387 133.615,37.967 C133.879,38.592 134.140,39.218 134.399,39.848 C135.440,42.383 135.845,45.143 135.312,47.735 C134.786,50.326 133.342,52.493 131.268,53.880 ZM120.868,58.307 C120.295,58.545 119.837,58.905 119.235,59.025 C119.225,59.055 119.216,59.085 119.206,59.114 C121.017,59.097 122.895,59.374 124.851,59.912 C127.555,60.660 130.175,61.822 132.689,63.349 C133.308,63.727 133.952,64.094 134.616,64.448 C133.992,64.731 133.364,65.007 132.729,65.277 C130.162,66.366 126.934,66.634 123.843,65.892 C120.751,65.160 118.146,63.490 116.513,61.215 C116.141,60.699 115.790,60.176 115.453,59.647 C109.500,60.779 107.308,65.246 107.363,65.348 C107.053,65.075 106.743,64.802 106.436,64.528 C106.456,64.141 110.045,58.419 119.245,58.689 C119.391,58.181 119.216,57.615 119.261,57.091 C119.504,54.479 119.940,51.472 121.525,49.415 C123.121,47.363 124.256,45.501 126.013,44.148 C126.449,43.813 126.878,43.472 127.300,43.121 C127.448,43.766 127.590,44.412 127.720,45.061 C128.260,47.680 127.958,50.441 126.676,52.914 C125.409,55.385 123.292,57.294 120.868,58.307 ZM127.708,57.760 C128.259,57.499 128.802,57.233 129.334,56.957 C131.493,55.851 133.917,55.275 136.607,55.159 C139.299,55.043 142.026,55.393 144.818,56.138 C145.507,56.322 146.211,56.492 146.926,56.644 C146.531,57.059 146.127,57.475 145.701,57.888 C144.013,59.554 141.301,60.726 138.164,60.959 C135.030,61.203 131.869,60.464 129.455,58.928 C128.855,58.549 128.271,58.160 127.708,57.760 ZM143.701,37.043 C142.017,34.971 140.725,32.549 139.781,29.907 C138.839,27.263 138.309,24.635 138.218,22.174 C138.196,21.564 138.166,20.953 138.129,20.334 C138.592,20.789 139.052,21.250 139.510,21.719 C141.361,23.617 142.954,26.232 144.022,29.071 C145.093,31.915 145.535,34.671 145.217,36.929 C145.142,37.490 145.053,38.045 144.958,38.597 C144.536,38.073 144.118,37.556 143.701,37.043 ZM141.518,52.572 C140.876,52.386 140.242,52.189 139.619,51.981 C139.971,51.564 140.309,51.148 140.632,50.722 C141.951,49.010 143.654,47.745 145.667,46.958 C147.687,46.174 149.834,45.940 152.156,46.256 C152.731,46.333 153.308,46.404 153.886,46.467 C153.773,46.948 153.649,47.428 153.515,47.906 C152.981,49.830 151.493,51.391 149.198,52.300 C146.920,53.214 144.106,53.333 141.518,52.572 Z"/>
    <path fill="url(#PSgrad_0)"
          d="M153.036,41.086 C151.639,42.476 149.540,43.161 147.262,43.027 C146.696,42.995 146.134,42.954 145.571,42.906 C145.711,42.400 145.842,41.890 145.962,41.378 C146.450,39.311 147.402,37.553 148.717,36.209 C150.036,34.869 151.604,34.059 153.413,33.875 C153.861,33.830 154.305,33.780 154.744,33.722 C154.766,34.011 154.788,34.298 154.808,34.584 C154.828,34.871 154.847,35.155 154.865,35.439 C155.016,37.734 154.445,39.694 153.036,41.086 ZM148.568,31.238 C148.157,31.332 147.740,31.421 147.321,31.504 C147.316,30.980 147.302,30.455 147.283,29.923 C147.210,27.793 147.581,25.820 148.365,24.110 C149.149,22.404 150.292,21.117 151.749,20.368 C152.109,20.184 152.471,19.995 152.833,19.796 C152.905,20.382 152.977,20.964 153.051,21.550 C153.346,23.913 153.149,26.175 152.361,27.954 C151.573,29.734 150.239,30.861 148.568,31.238 ZM147.508,20.759 C147.200,20.227 146.891,19.694 146.579,19.172 C145.324,17.052 144.425,14.754 144.009,12.418 C143.599,10.082 143.725,7.919 144.599,6.053 C144.815,5.592 145.041,5.127 145.284,4.659 C145.621,5.128 145.954,5.607 146.283,6.092 C147.609,8.048 148.379,10.509 148.688,13.019 C148.994,15.532 148.793,17.815 148.058,19.510 C147.876,19.932 147.692,20.348 147.508,20.759 ZM146.147,25.516 C146.196,26.089 146.241,26.657 146.277,27.220 C145.864,26.814 145.449,26.418 145.034,26.028 C143.360,24.451 141.873,22.501 140.595,20.263 C139.323,18.026 138.360,15.696 137.805,13.388 C137.667,12.816 137.523,12.243 137.372,11.670 C137.850,11.948 138.327,12.237 138.801,12.535 C140.722,13.734 142.498,15.727 143.828,18.162 C145.164,20.598 145.952,23.208 146.147,25.516 ZM141.299,39.377 C141.934,42.140 141.780,44.672 140.784,46.661 C140.541,47.155 140.281,47.643 140.015,48.127 C139.665,47.565 139.317,47.005 138.969,46.448 C137.565,44.191 136.701,41.663 136.239,39.031 C135.783,36.398 135.755,33.893 136.144,31.699 C136.241,31.155 136.328,30.606 136.407,30.052 C136.825,30.592 137.241,31.134 137.658,31.682 C139.340,33.900 140.666,36.617 141.299,39.377 ZM131.268,53.880 C130.758,54.224 130.241,54.560 129.710,54.891 C129.619,54.260 129.525,53.635 129.426,53.009 C129.024,50.486 129.236,47.914 129.843,45.452 C130.457,42.989 131.407,40.857 132.690,39.209 C133.008,38.802 133.315,38.387 133.615,37.967 C133.879,38.592 134.140,39.218 134.399,39.848 C135.440,42.383 135.845,45.143 135.312,47.735 C134.786,50.326 133.342,52.493 131.268,53.880 ZM120.868,58.307 C120.295,58.545 119.837,58.905 119.235,59.025 C119.225,59.055 119.216,59.085 119.206,59.114 C121.017,59.097 122.895,59.374 124.851,59.912 C127.555,60.660 130.175,61.822 132.689,63.349 C133.308,63.727 133.952,64.094 134.616,64.448 C133.992,64.731 133.364,65.007 132.729,65.277 C130.162,66.366 126.934,66.634 123.843,65.892 C120.751,65.160 118.146,63.490 116.513,61.215 C116.141,60.699 115.790,60.176 115.453,59.647 C109.500,60.779 107.308,65.246 107.363,65.348 C107.053,65.075 106.743,64.802 106.436,64.528 C106.456,64.141 110.045,58.419 119.245,58.689 C119.391,58.181 119.216,57.615 119.261,57.091 C119.504,54.479 119.940,51.472 121.525,49.415 C123.121,47.363 124.256,45.501 126.013,44.148 C126.449,43.813 126.878,43.472 127.300,43.121 C127.448,43.766 127.590,44.412 127.720,45.061 C128.260,47.680 127.958,50.441 126.676,52.914 C125.409,55.385 123.292,57.294 120.868,58.307 ZM127.708,57.760 C128.259,57.499 128.802,57.233 129.334,56.957 C131.493,55.851 133.917,55.275 136.607,55.159 C139.299,55.043 142.026,55.393 144.818,56.138 C145.507,56.322 146.211,56.492 146.926,56.644 C146.531,57.059 146.127,57.475 145.701,57.888 C144.013,59.554 141.301,60.726 138.164,60.959 C135.030,61.203 131.869,60.464 129.455,58.928 C128.855,58.549 128.271,58.160 127.708,57.760 ZM143.701,37.043 C142.017,34.971 140.725,32.549 139.781,29.907 C138.839,27.263 138.309,24.635 138.218,22.174 C138.196,21.564 138.166,20.953 138.129,20.334 C138.592,20.789 139.052,21.250 139.510,21.719 C141.361,23.617 142.954,26.232 144.022,29.071 C145.093,31.915 145.535,34.671 145.217,36.929 C145.142,37.490 145.053,38.045 144.958,38.597 C144.536,38.073 144.118,37.556 143.701,37.043 ZM141.518,52.572 C140.876,52.386 140.242,52.189 139.619,51.981 C139.971,51.564 140.309,51.148 140.632,50.722 C141.951,49.010 143.654,47.745 145.667,46.958 C147.687,46.174 149.834,45.940 152.156,46.256 C152.731,46.333 153.308,46.404 153.886,46.467 C153.773,46.948 153.649,47.428 153.515,47.906 C152.981,49.830 151.493,51.391 149.198,52.300 C146.920,53.214 144.106,53.333 141.518,52.572 Z"/>
    <path fill-rule="evenodd"  fill="rgb(67, 179, 41)"
          d="M120.961,40.163 C120.307,40.163 119.733,39.778 119.240,39.007 L113.917,30.727 L113.917,37.380 C113.917,38.761 114.607,39.473 115.987,39.518 L115.987,40.163 L109.388,40.163 L109.388,39.518 C110.185,39.509 110.725,39.352 111.007,39.047 C111.290,38.743 111.431,38.187 111.431,37.380 L111.431,25.740 C111.431,24.934 111.290,24.383 111.007,24.087 C110.725,23.791 110.185,23.635 109.388,23.617 L109.388,22.971 L117.936,22.971 C120.472,22.971 121.740,23.957 121.740,25.928 C121.740,28.124 120.316,30.037 117.466,31.668 L120.463,36.305 C121.808,38.384 123.049,39.455 124.187,39.518 L124.187,40.163 L120.961,40.163 ZM118.985,27.837 C118.985,26.771 118.756,25.839 118.299,25.041 C117.753,24.083 116.982,23.603 115.987,23.603 C115.253,23.603 114.563,23.827 113.917,24.275 L113.917,29.880 C114.966,30.642 115.866,31.023 116.619,31.023 C118.196,31.023 118.985,29.961 118.985,27.837 ZM118.151,17.428 C116.709,18.163 115.199,18.530 113.622,18.530 C111.328,18.530 109.401,17.751 107.842,16.191 C106.283,14.632 105.503,12.706 105.503,10.412 C105.503,7.795 106.469,5.499 108.400,3.523 C110.331,1.547 112.600,0.559 115.208,0.559 C118.210,0.559 120.553,1.778 122.238,4.215 C123.107,5.470 123.542,6.975 123.542,8.731 C123.542,10.506 123.040,12.197 122.036,13.805 C121.032,15.414 119.738,16.622 118.151,17.428 ZM120.248,6.446 C119.496,4.860 118.452,3.682 117.116,2.911 C115.835,2.177 114.639,1.809 113.528,1.809 C111.762,1.809 110.346,2.432 109.280,3.677 C108.276,4.860 107.775,6.352 107.775,8.153 C107.775,10.546 108.465,12.634 109.845,14.417 C111.350,16.362 113.268,17.334 115.598,17.334 C117.273,17.334 118.653,16.707 119.738,15.452 C120.759,14.251 121.270,12.800 121.270,11.097 C121.270,9.448 120.929,7.898 120.248,6.446 ZM99.360,1.594 L98.634,1.594 L98.634,15.358 C98.634,16.747 99.315,17.460 100.678,17.495 L100.678,18.140 L94.105,18.140 L94.105,17.495 C94.902,17.486 95.442,17.330 95.724,17.025 C96.007,16.720 96.148,16.165 96.148,15.358 L96.148,1.594 L95.220,1.594 C92.738,1.594 91.457,2.880 91.376,5.452 L90.435,5.452 L90.435,4.953 C90.210,6.074 89.586,7.149 88.533,8.174 C87.193,9.477 85.789,10.129 84.319,10.129 C83.710,10.129 83.029,9.964 82.276,9.632 L82.276,15.358 C82.276,16.738 82.957,17.451 84.319,17.495 L84.319,18.140 L77.746,18.140 L77.746,17.495 C78.553,17.486 79.095,17.332 79.373,17.032 C79.650,16.731 79.789,16.174 79.789,15.358 L79.789,3.718 C79.789,2.911 79.648,2.360 79.366,2.064 C79.084,1.769 78.544,1.612 77.746,1.594 L77.746,0.949 L86.255,0.949 C88.684,0.949 90.070,1.697 90.435,3.179 L90.435,0.344 L91.027,0.344 C91.143,0.747 91.318,0.949 91.551,0.949 L103.299,0.949 C103.603,0.949 103.756,0.747 103.756,0.344 L104.401,0.344 L104.401,5.452 L103.446,5.452 C103.420,2.880 102.057,1.594 99.360,1.594 ZM87.155,2.925 C86.591,2.047 85.775,1.607 84.709,1.607 C83.876,1.607 83.065,1.894 82.276,2.468 L82.276,7.831 C83.423,8.691 84.449,9.121 85.354,9.121 C87.039,9.121 87.881,7.992 87.881,5.734 C87.881,4.605 87.639,3.669 87.155,2.925 ZM74.292,4.605 L70.219,11.541 L70.219,15.358 C70.219,16.738 70.900,17.451 72.262,17.495 L72.262,18.140 L65.689,18.140 L65.689,17.495 C66.487,17.486 67.027,17.330 67.309,17.025 C67.591,16.720 67.732,16.165 67.732,15.358 L67.732,11.541 L64.372,4.793 C63.915,3.879 63.525,3.212 63.203,2.790 C62.611,2.002 61.997,1.603 61.361,1.594 L61.361,0.949 L66.240,0.949 L66.240,1.594 C65.900,1.603 65.730,1.724 65.730,1.957 C65.730,2.047 65.748,2.127 65.784,2.199 L70.004,10.586 C72.182,7.181 73.270,4.699 73.270,3.140 C73.270,2.513 73.051,2.083 72.612,1.849 C72.298,1.688 71.787,1.603 71.079,1.594 L71.079,0.949 L77.504,0.949 L77.504,1.594 C76.528,1.612 75.457,2.615 74.292,4.605 ZM61.536,17.495 L61.536,18.140 L58.310,18.140 C57.656,18.140 57.082,17.755 56.590,16.985 L51.267,8.704 L51.267,15.358 C51.267,16.738 51.957,17.451 53.337,17.495 L53.337,18.140 L46.737,18.140 L46.737,17.495 C47.534,17.486 48.074,17.330 48.357,17.025 C48.639,16.720 48.780,16.165 48.780,15.358 L48.780,3.718 C48.780,2.911 48.639,2.360 48.357,2.064 C48.074,1.769 47.534,1.612 46.737,1.594 L46.737,0.949 L55.286,0.949 C57.822,0.949 59.090,1.935 59.090,3.906 C59.090,6.102 57.665,8.015 54.815,9.645 L57.813,14.283 C59.157,16.362 60.398,17.433 61.536,17.495 ZM56.334,5.815 C56.334,4.748 56.106,3.817 55.649,3.019 C55.102,2.060 54.331,1.580 53.337,1.580 C52.602,1.580 51.912,1.805 51.267,2.253 L51.267,7.858 C52.315,8.619 53.216,9.000 53.968,9.000 C55.546,9.000 56.334,7.938 56.334,5.815 ZM37.503,18.530 C35.289,18.530 33.479,17.706 32.072,16.057 C30.746,14.489 30.083,12.580 30.083,10.331 C30.083,6.782 31.597,4.005 34.626,1.997 C36.069,1.038 37.807,0.559 39.841,0.559 C41.616,0.559 43.291,0.837 44.869,1.392 L44.869,5.452 L43.914,5.452 C43.798,4.152 43.206,3.135 42.140,2.400 C41.181,1.737 40.016,1.406 38.645,1.406 C36.665,1.406 35.101,2.158 33.954,3.664 C32.914,5.035 32.395,6.742 32.395,8.785 C32.395,10.927 32.977,12.733 34.142,14.202 C35.397,15.788 37.068,16.581 39.156,16.581 C41.136,16.581 43.175,15.734 45.272,14.041 L45.272,14.861 C42.431,17.307 39.841,18.530 37.503,18.530 ZM31.481,22.971 L43.229,22.971 C43.533,22.971 43.686,22.770 43.686,22.366 L44.331,22.366 L44.331,27.474 L43.377,27.474 C43.350,24.903 41.987,23.617 39.290,23.617 L38.565,23.617 L38.565,37.380 C38.565,38.770 39.245,39.482 40.608,39.518 L40.608,40.163 L34.035,40.163 L34.035,39.518 C34.832,39.509 35.372,39.352 35.654,39.047 C35.937,38.743 36.078,38.187 36.078,37.380 L36.078,23.617 L35.150,23.617 C32.668,23.617 31.387,24.903 31.306,27.474 L30.365,27.474 L30.365,22.366 L30.957,22.366 C31.073,22.770 31.248,22.971 31.481,22.971 ZM57.517,25.928 C57.517,28.124 56.092,30.037 53.243,31.668 L56.240,36.305 C57.477,38.219 58.626,39.267 59.688,39.473 C60.602,39.268 61.433,38.220 62.181,36.305 L67.692,22.259 L68.485,22.259 L73.243,35.996 C73.575,36.964 73.884,37.690 74.171,38.174 C74.691,39.043 75.273,39.491 75.918,39.518 L75.918,40.163 L71.093,40.163 L71.093,39.518 L71.402,39.518 C71.554,39.518 71.631,39.370 71.631,39.074 C71.631,38.985 71.612,38.886 71.577,38.779 L69.964,34.101 L64.090,34.101 C63.472,35.839 63.162,37.134 63.162,37.985 C63.162,38.451 63.310,38.823 63.606,39.101 C63.902,39.379 64.282,39.518 64.749,39.518 L65.461,39.518 L65.461,40.163 L59.963,40.163 L59.439,40.163 L56.737,40.163 C56.083,40.163 55.510,39.778 55.017,39.007 L49.694,30.727 L49.694,37.380 C49.694,38.761 50.384,39.473 51.764,39.518 L51.764,40.163 L45.164,40.163 L45.164,39.518 C45.962,39.509 46.502,39.352 46.784,39.047 C47.066,38.743 47.207,38.187 47.207,37.380 L47.207,25.740 C47.207,24.934 47.066,24.383 46.784,24.087 C46.502,23.791 45.962,23.635 45.164,23.617 L45.164,22.971 L53.713,22.971 C56.249,22.971 57.517,23.957 57.517,25.928 ZM69.668,33.281 L67.222,26.130 L64.399,33.281 L69.668,33.281 ZM51.764,23.603 C51.029,23.603 50.339,23.827 49.694,24.275 L49.694,29.880 C50.742,30.642 51.643,31.023 52.396,31.023 C53.973,31.023 54.761,29.961 54.761,27.837 C54.761,26.771 54.533,25.839 54.076,25.041 C53.529,24.083 52.759,23.603 51.764,23.603 ZM94.454,29.759 C94.454,32.833 93.457,35.335 91.463,37.266 C89.469,39.198 86.931,40.163 83.849,40.163 L76.805,40.163 L76.805,39.518 C77.603,39.509 78.143,39.352 78.425,39.047 C78.707,38.743 78.849,38.187 78.849,37.380 L78.849,25.740 C78.849,24.934 78.707,24.383 78.425,24.087 C78.143,23.791 77.603,23.635 76.805,23.617 L76.805,22.971 L87.371,22.971 C92.093,22.971 94.454,25.234 94.454,29.759 ZM81.335,24.611 L81.335,38.039 C82.769,38.873 84.167,39.289 85.529,39.289 C87.590,39.289 89.203,38.483 90.368,36.870 C91.407,35.436 91.927,33.649 91.927,31.507 C91.927,26.220 89.696,23.576 85.233,23.576 C83.665,23.576 82.366,23.921 81.335,24.611 ZM106.807,22.299 L107.439,22.299 L107.439,27.434 L106.457,27.434 C106.422,24.889 104.889,23.617 101.860,23.617 L100.839,23.617 C100.731,24.593 100.678,25.467 100.678,26.237 C100.678,29.222 101.936,30.713 104.455,30.713 L105.772,30.713 L105.772,31.655 L100.839,31.789 L100.839,39.518 L102.264,39.518 C105.275,39.518 106.999,38.084 107.439,35.217 L108.393,35.217 L107.291,40.754 L106.619,40.754 C106.610,40.360 106.439,40.163 106.108,40.163 L96.309,40.163 L96.309,39.518 C97.116,39.509 97.658,39.354 97.935,39.054 C98.213,38.754 98.352,38.196 98.352,37.380 L98.352,25.754 C98.352,24.947 98.211,24.394 97.929,24.094 C97.647,23.794 97.107,23.635 96.309,23.617 L96.309,22.971 L105.906,22.971 C106.489,22.971 106.789,22.747 106.807,22.299 Z"/>
</svg>